# xmcd
#
# Track frame offsets:
#	150
#	31137
#	59756
#	79994
#	118957
#	137487
#	178904
#	216555
#	251674
#	277913
#	280176
#	322102
#
# Disc length: 4508 seconds
# Revision: 0
# Processed by: cddbd v1.5.2PL0 Copyright (c) Steve Scherf et al.
# Submitted via: dBpowerAMP V12.0
#
DISCID=c1119a0c
DTITLE=Finnen - Horwood - Williams Jr - Weeping Spell
DYEAR=2015
DGENRE=Blues
TTITLE0=32-20
TTITLE1=Parchman Farm
TTITLE2=Sitting On Top Of The World
TTITLE3=Honeychild
TTITLE4=Kory's ramble
TTITLE5=Gambling Blues
TTITLE6=Death Letter
TTITLE7=All My Friends
TTITLE8=Whiff On Me
TTITLE9=Thankyou
TTITLE10=Crossroads
TTITLE11=Weeping Spell
EXTD=
EXTT0=
EXTT1=
EXTT2=
EXTT3=
EXTT4=
EXTT5=
EXTT6=
EXTT7=
EXTT8=
EXTT9=
EXTT10=
EXTT11=
PLAYORDER=
